<svg xmlns="http://www.w3.org/2000/svg" xmlns:xlink="http://www.w3.org/1999/xlink" width="1166" height="652" viewBox="0 0 1166 652">
  <defs>
    <clipPath id="clip-logo">
      <rect width="1166" height="652"/>
    </clipPath>
  </defs>
  <g id="logo" clip-path="url(#clip-logo)">
    <g id="Layer_6">
      <path id="Pfad_1" data-name="Pfad 1" d="M761.137,53.1c9.188,3.688,21.312,8.97,30.106,13.517A284.246,284.246,0,0,1,818.892,82.9a288.864,288.864,0,0,1,24.27,19.354,338.84,338.84,0,0,1,26.727,26.113,293.29,293.29,0,0,1,21.705,28.281,390.687,390.687,0,0,1,22.477,39.012,379.121,379.121,0,0,1,15.469,36.3c3.929,10.893,8.787,25.629,11.032,36.989,3.136,15.873,5.521,37.522,5.051,53.7-.613,21.086-5.583,49.073-11.1,69.432-3.386,12.483-9.8,28.6-15.242,40.328-5.246,11.3-13.628,25.708-20.174,36.312-6.671,10.809-15.934,25.051-23.871,34.968a372.148,372.148,0,0,1-37.707,40.064c-13.482,12.092-33.2,26.209-48.245,36.288-11.017,7.379-26.1,16.7-37.937,22.679a463.439,463.439,0,0,1-53.606,22.267,513.019,513.019,0,0,1-56.493,15.257c-13.795,2.825-32.465,5.126-46.461,6.677-18.148,2.011-42.433,4.191-60.687,4.636-18.334.446-42.8-.626-61.109-1.686-14.57-.844-33.979-2.435-48.465-4.214-17.915-2.2-41.8-5.577-59.4-9.545a651.321,651.321,0,0,1-71.672-21.134c-14.387-5.239-33.3-13.119-46.863-20.215-10.972-5.738-24.837-14.784-35.113-21.692-8.924-6-20.7-14.232-28.979-21.091A291.2,291.2,0,0,1,155.615,526.7a204.671,204.671,0,0,1-17.276-22.075,184.48,184.48,0,0,1-12.477-22.395,134.73,134.73,0,0,1-5.9-15.718,157.542,157.542,0,0,1-4.709-20.927,131.445,131.445,0,0,1-1.308-22.234,64.731,64.731,0,0,1,2.093-14.126c2.687-8.83,8.709-19.81,13.864-27.466,4.346-6.456,11.573-14.014,16.977-19.614,6.039-6.257,14.594-14.117,21.251-19.711,6.31-5.3,15.056-11.989,21.867-16.63,8.867-6.043,21.556-12.744,30.617-18.491,7.286-4.622,17.039-10.758,23.957-15.914,6.512-4.852,14.829-11.819,20.81-17.312a222.561,222.561,0,0,0,15.743-15.884c4.648-5.338,9.873-13.242,14.3-18.766,4.815-6.011,11.431-13.872,16.54-19.635,6.651-7.5,15.7-17.359,22.826-24.41,8.82-8.727,21.083-19.858,30.555-27.872,7.958-6.733,19-15.184,27.317-21.473,8.1-6.13,19.06-14.106,27.386-19.932,6.658-4.659,15.622-10.753,22.467-15.133,9.216-5.9,21.661-13.527,31.2-18.881,6.506-3.65,15.354-8.209,22.048-11.5,7.582-3.729,17.847-8.378,25.567-11.813,6.625-2.948,15.412-7.015,22.216-9.521,8.259-3.042,19.546-6.319,28.035-8.64,8.716-2.383,20.427-5.256,29.291-7,8.59-1.694,20.149-3.4,28.834-4.505,5.322-.678,12.439-1.477,17.795-1.8,7.758-.471,18.134-.623,25.9-.45,6.9.153,16.1.714,22.963,1.4,8.216.816,19.128,2.36,27.257,3.806,5.043.9,11.689,2.492,16.7,3.56h0C740.3,45.66,754.98,50.629,761.137,53.1Z" fill="rgba(255,164,11,0.8)" stroke="#ffa40b" stroke-linecap="round" stroke-linejoin="round" stroke-width="1" fill-rule="evenodd"/>
      <path id="Pfad_2" data-name="Pfad 2" d="M215.049,309.812c2.041-1.142,4.854-2.494,6.934-3.562,0,0,24.562,15.7,33.265,24.533,12.271,12.456,25.135,32.362,33.359,47.792,10.239,19.207,18.385,47.344,25.879,67.779,8.191,22.334,20.525,51.729,26.3,74.807,5.137,20.54,9.928,48.586,10.842,69.739.5,11.537-1.495,26.9-2.136,38.433,0,0-19.7-3.078-27.966-5.184a347.182,347.182,0,0,1-38.4-12.739,441.229,441.229,0,0,1-48.776-23.044,414.348,414.348,0,0,1-41.981-27.987c-9.082-6.916-20.835-16.684-28.854-24.809a246.676,246.676,0,0,1-23.742-28.328c-5.207-7.42-11.6-17.785-15.267-26.077-2.962-6.7-5.172-16.3-7.388-23.284-.869-4.338-2.4-10.064-2.9-14.461-.96-8.576-1.887-20.265-.388-28.763.78-4.425,3.155-10.02,4.994-14.119a132.253,132.253,0,0,1,11.353-20.252c4.12-5.8,10.7-12.714,15.721-17.759,10.643-10.7,25.645-24.245,37.785-33.211,8.914-6.583,21.7-14.093,31.369-19.5M117.113,457.881Z" fill="rgba(255,164,11,0.8)" fill-rule="evenodd"/>
      <path id="Pfad_3" data-name="Pfad 3" d="M221.983,306.25h0M117.113,457.881h0M349.488,629.333h0" fill="none" stroke="#d0d500" stroke-linecap="round" stroke-linejoin="round" stroke-width="1"/>
      <path id="Pfad_4" data-name="Pfad 4" d="M382.353,202.065c15.386-15.949,37.15-36.13,54.781-49.556,15.384-11.714,37.383-25.364,54.315-34.7A349.132,349.132,0,0,1,529.06,99.883c18.653-7.259,44.231-15.529,63.925-19.1,17.994-3.262,42.52-4.143,60.806-4.287,19.089-.151,45.442-2.58,63.535,3.508,3.726,1.253,9.365,3.207,11.3,6.626,3.238,5.711,2.064,16.353-1.559,21.828-5.923,8.951-22.722,10.575-32.742,14.422-23.269,8.934-55.486,17.438-79.126,25.336-19.257,6.434-45.482,13.728-63.925,22.218-16.087,7.4-35.749,20.726-51.062,29.623-14.772,8.583-34.254,20.4-49.222,28.642-12.918,7.109-29.662,17.875-43.6,22.691-7.968,2.754-19.114,5.236-27.536,5.609-4.144.184-10.024.511-13.768-1.274a17.559,17.559,0,0,1-6.119-5.864,24.432,24.432,0,0,1-3.1-8.9,23.089,23.089,0,0,1,.492-8.484,12.912,12.912,0,0,1,1.476-2.951C358.867,229.475,374.824,209.87,382.353,202.065Z" fill="rgba(255,164,11,0.8)" fill-rule="evenodd"/>
      <path id="Pfad_5" data-name="Pfad 5" fill="none" stroke="#ffba45" stroke-linecap="round" stroke-linejoin="round" stroke-width="1"/>
      <path id="Pfad_6" data-name="Pfad 6" d="M921.277,430.037c-5.531,12.4-15.5,27.629-22.138,39.47,0,0,4.222-10.143,5.722-14.6a529.066,529.066,0,0,0,14.8-55.054c3.694-17.809,7.679-41.831,8.8-59.984,1.032-16.7.777-39.139-1.162-55.758a165.018,165.018,0,0,0-5.517-27.3c-3.665-11.667-11.136-26.285-16.528-37.261-7.435-15.136-17.54-35.326-26.868-49.374-8.076-12.162-20.609-27.158-30.273-38.1-9.841-11.142-23.708-25.367-34.7-35.375-6.577-5.989-16.1-13.105-22.913-18.818-8.944-7.5-29.55-25.292-29.55-25.292,9.443,3.063,21.4,8.929,30.221,13.479,9.77,5.037,22.573,12.288,31.543,18.641,10.126,7.171,22.665,18.073,31.614,26.668a321.772,321.772,0,0,1,24.734,26.949,312.231,312.231,0,0,1,21.465,30.37c5.976,9.823,12.784,23.6,17.607,34.041,5.994,12.967,14.017,30.371,17.955,44.1,5.095,17.771,9.67,42.295,10.194,60.775.628,22.137-3.525,51.742-8.439,73.336A294.88,294.88,0,0,1,921.277,430.037Z" fill="rgba(255,164,11,0.8)" fill-rule="evenodd"/>
      <path id="Pfad_7" data-name="Pfad 7" d="M899.139,469.507h0" fill="none" stroke="#f87b1e" stroke-linecap="round" stroke-linejoin="round" stroke-width="1"/>
      <path id="Pfad_9" data-name="Pfad 9" d="M971.142,181.183h0l-30.021-23.148h0l-4.792,4.43c8.409,7.488,28.029,24.955,28.032,24.958,2.034-1.872,6.781-6.239,6.781-6.24Z" fill="rgba(255,164,11,0.8)" fill-rule="evenodd"/>
      <path id="Pfad_10" data-name="Pfad 10" d="M936.329,162.465h0m34.813,18.718h0m-6.781,6.24h0m-23.24-29.388h0m30.021,23.148h0" fill="none" stroke="#129400" stroke-linecap="round" stroke-linejoin="round" stroke-width="1"/>
      <path id="Pfad_11" data-name="Pfad 11" d="M897.264,189.4a4.509,4.509,0,0,0,.319.343c.006,0,45.133-21.585,64.376-31.04,5.845-2.872,13.41-7.2,19.426-9.69a151.884,151.884,0,0,1,19.318-6.484,75.948,75.948,0,0,1,11.725-2.027s-4.2-10.785-6.321-15.265a59.763,59.763,0,0,0-3.917-7.43,17.424,17.424,0,0,0-3.783-4.459c-.613-.413-1.586-1.048-2.3-.871,0,0-8.051,8.1-11.881,11.139-8.618,6.826-21.409,14.142-30.8,19.858-9.559,5.818-22.581,13.114-32.358,18.559-8.761,4.879-21.264,10.045-29.4,15.9l1.412,3.441a35.338,35.338,0,0,0,4.193,8.023s.186.3.319.343Z" fill="rgba(255,164,11,0.8)" fill-rule="evenodd"/>
      <path id="Pfad_12" data-name="Pfad 12" fill="none" stroke="#000" stroke-linecap="round" stroke-linejoin="round" stroke-width="1"/>
      <path id="Pfad_13" data-name="Pfad 13" d="M1113.31,601.676c1.734,8.317,1.281,19.783,1.753,28.265,0,0,6.048-11.509,7.36-16.874,6.692-27.355,3.169-65.758,1.367-93.862-2.44-38.062-10.936-88.41-18.681-125.756-6-28.94-13.137-68.259-25.2-95.241-14.954-33.45-37.518-81.024-67.881-101.532-13.03-8.8-35.08-16.524-50.565-13.794-5.733,4.236-10.673,12.483-14.446,18.321a180.858,180.858,0,0,0-12.345,23.675c-3.46,7.976-7.7,18.863-9.578,27.351a162.882,162.882,0,0,0-3.46,36.8,188.19,188.19,0,0,0,7.235,42.466c5.152,17.176,15.5,39.012,24.5,54.52,11.106,19.137,29.545,42.407,43.682,59.429,11.71,14.1,28.789,31.639,41.65,44.7,7.7,7.819,19.026,17.206,26.31,25.413,10.436,11.756,23.868,28.143,31.44,41.919,6.835,12.437,13.962,30.3,16.858,44.2M961.463,182.882a.436.436,0,0,0-.161.081Z" fill="rgba(255,164,11,0.8)" fill-rule="evenodd"/>
      <path id="Pfad_15" data-name="Pfad 15" d="M1120.12,612.917c-.708,5.263-3.581,11.864-5,16.981,0,0,10.126-14.98,13.632-21.871,8.137-15.994,16.595-38.552,21.57-55.795,4.583-15.884,8.558-37.669,10.641-54.069a642.12,642.12,0,0,0,4.383-83.373c-.458-24.916-3.611-58.108-7.4-82.738a411.57,411.57,0,0,0-10.016-47.031c-3.561-12.259-9.229-28.4-14.746-39.918-6.325-13.2-15.544-30.769-25.183-41.781a133.326,133.326,0,0,0-30.621-24.9c-5.949-3.4-14.7-6.383-21.274-8.328a94,94,0,0,0-14.825-3.144,125.848,125.848,0,0,0-21.115,0,176.415,176.415,0,0,0-24.933,4.043,206.029,206.029,0,0,0-29.111,9.611c-1.636.7-5.292,2.68-5.292,2.68,8.232,6.185,20.33,12.916,28.229,19.52a237.619,237.619,0,0,1,25.75,25.928c12.873,15.19,28.487,36.885,38.259,54.234,7.2,12.782,14.869,30.9,19.83,44.7,4.145,11.536,8.192,27.415,11.092,39.325,6.5,26.7,13.051,62.794,17.9,89.846,4.8,26.789,11.378,62.529,14.29,89.589C1118.313,566.3,1122.788,593.114,1120.12,612.917Z" transform="translate(0 3)" fill="rgba(255,164,11,0.8)" fill-rule="evenodd"/>
      <path id="Pfad_16" data-name="Pfad 16" fill="none" stroke="#129400" stroke-linecap="round" stroke-linejoin="round" stroke-width="1"/>
    </g>
    <text id="mangoTicket" transform="translate(208 578)" font-size="154" font-family="Avenir-Black, Avenir" font-weight="800"><tspan x="0" y="0">mangoTicket</tspan></text>
  </g>
</svg>
