<?xml version='1.0' encoding='utf-8'?>
<svg xmlns="http://www.w3.org/2000/svg" version="1.1" id="Layer_1" x="0px" y="0px" width="1100px" height="1100px" viewBox="0 0 1100 1100" enable-background="new 0 0 1100 1100"> <g id="vs-highlight"> <g> <path fill="#5DBFD9" d="M1028.3,730.7L1028.3,730.7l-940.1,6.6c-0.7,0-1.4,0.1-2.1,0.2l-22.5,3.4L70.7,348&#13;&#10;&#9;&#9;&#9;c0.1-8.3-6.4-15.1-14.7-15.3c-0.1,0-0.2,0-0.3,0c-8.2,0-14.8,6.5-15,14.7L33.3,758c-0.1,4.4,1.8,8.6,5.1,11.5&#13;&#10;&#9;&#9;&#9;c2.8,2.4,6.3,3.7,9.9,3.7c0.7,0,1.5-0.1,2.2-0.2l38.9-5.8l938.9-6.6c8.3-0.1,15-6.8,14.9-15.1&#13;&#10;&#9;&#9;&#9;C1043.2,737.4,1036.5,730.7,1028.3,730.7z"/> <path fill="#5DBFD9" d="M660.3,681.2c-2.2,0-4.4,0.7-6.2,2l-19.3,14c-3.7,2.7-5.2,7.4-3.8,11.8c1.4,4.3,5.4,7.2,10,7.2h0.1&#13;&#10;&#9;&#9;&#9;l364.7-3.4c3.4,0,6.5-1.7,8.5-4.4c1.9-2.7,2.5-6.3,1.4-9.5l-3.4-10c-1.4-4.3-5.4-7.1-9.9-7.1L660.3,681.2L660.3,681.2z"/> <path fill="#5DBFD9" d="M1035.7,340.5L1035.7,340.5c-5.8,0-10.5,4.7-10.5,10.5l-0.7,356c0,5.8,4.7,10.5,10.5,10.5l0,0&#13;&#10;&#9;&#9;&#9;c5.8,0,10.5-4.7,10.5-10.5l0.7-356C1046.2,345.2,1041.5,340.5,1035.7,340.5z"/> <path fill="#5DBFD9" d="M625.1,363.9c0.2,0.1,19.2,11,27.6,29.5c1.6,3.6,5.2,6,9.2,6.1l120.7,4.7c0.1,0,0.3,0,0.4,0&#13;&#10;&#9;&#9;&#9;c3,0,5.9-1.3,7.9-3.6c2.1-2.4,3-5.6,2.5-8.7l-6.7-39.3c-0.9-5-5.2-8.7-10.4-8.7l0,0l-146,0.3c-4.8,0-8.9,3.2-10.1,7.8&#13;&#10;&#9;&#9;&#9;S621,361.5,625.1,363.9z"/> <path fill="#5DBFD9" d="M328.7,419.8l18.7,0.3c0.1,0,0.1,0,0.2,0c5.2,0,10-3,12.2-7.7c4.6-9.6,15.1-27.1,23.9-32.8&#13;&#10;&#9;&#9;&#9;c5.1-3.3,7.3-9.6,5.5-15.4c-1.8-5.8-7.3-9.6-13.4-9.4l-32.7,1.3c-3.8,0.2-7.4,1.9-9.9,4.9s-3.5,6.8-2.9,10.7&#13;&#10;&#9;&#9;&#9;c1.1,7.1-6.3,19.6-11.6,25.8c-3.4,4-4.3,9.6-2.1,14.3C318.7,416.6,323.4,419.7,328.7,419.8z"/> <path fill="#5DBFD9" d="M106.3,713.2L106.3,713.2c5.3,0,9.5-4.3,9.5-9.6l-2.6-317.4c0-5.2-4.3-9.4-9.5-9.4h-0.1&#13;&#10;&#9;&#9;&#9;c-5.2,0-9.5,4.3-9.4,9.6l2.6,317.4C96.8,709,101.1,713.2,106.3,713.2z"/> <path fill="#5DBFD9" d="M216.3,577.7c14.9,0,27.7-7.6,34.3-20.4c6.4-12.4,5.5-27-2.3-38.1c-8.6-12.2-23.8-17.8-41.7-15.4&#13;&#10;&#9;&#9;&#9;c-17,2.3-29.3,19.7-27.9,39.5C180,563.6,195.5,577.7,216.3,577.7z M216.1,537.9c0.9,0.5,1.9,1.4,2.3,2.3c-0.5,0.6-1.4,1.5-2.7,2.2&#13;&#10;&#9;&#9;&#9;c-0.5-0.7-0.9-1.6-0.8-2.6C214.9,538.8,215.6,538.2,216.1,537.9z"/> <path fill="#5DBFD9" d="M363.3,582.2c0.2,0,0.4,0,0.6,0c-2.1,5.3-3.2,10.7-3.8,13.9c-0.9,5.4,2.8,10.6,8.2,11.5&#13;&#10;&#9;&#9;&#9;c5.4,0.9,10.6-2.8,11.5-8.2c0.9-5.3,3-11.7,4.5-13.4c3.7-2.5,5.3-7.2,3.8-11.5c-4-11.9-11.8-48.1,4.3-58.7c3.1-2,4.8-5.6,4.5-9.2&#13;&#10;&#9;&#9;&#9;c0-0.4-2.8-37.6,16.9-45.9c2.1-0.9,3.9-2.5,5-4.6c0.2-0.5,25.2-46.4,52.6-39.3c2.2,0.6,4.5,0.4,6.6-0.6c0.3-0.2,35.2-15.5,59-5.6&#13;&#10;&#9;&#9;&#9;c8.6,3.6,14.6,10,18.3,19.8c0.6,1.5,1.6,2.9,2.8,4c0.3,0.3,34.3,30.5,32.3,78.7c-0.1,1.6,0.3,3.2,0.9,4.7&#13;&#10;&#9;&#9;&#9;c3.7,7.8,13.2,26.5,21.9,32.1c0.1,0,0.1,0.1,0.2,0.1c3.7,2.3,9.6,11.1,4.9,28c-4.1,14.8-3.8,26.3-2.8,33.3c-1.6-0.2-3.2,0.1-4.7,1&#13;&#10;&#9;&#9;&#9;c-3.9,2.1-5.3,7-3.1,10.9l5,9c1.5,2.6,4.2,4.1,7,4.1c1.3,0,2.6-0.3,3.9-1c3.9-2.1,5.3-7,3.1-10.9l-4-7.3l13.5-4.8v0.1&#13;&#10;&#9;&#9;&#9;c0-0.1-0.9-3-1.2-8.2c4.3-0.8,7.7-4.5,7.8-9.1c1.3-55-12.4-88.6-26.6-118.3c-2-4.1-4-9.5-6.1-15.2&#13;&#10;&#9;&#9;&#9;c-12.7-33.3-33.8-89.2-114.6-82.1c-42.9,3.8-79.3,27.3-105.1,68.1c-21.5,33.9-34.7,79.4-36.2,124.8&#13;&#10;&#9;&#9;&#9;C353.9,577.6,358,582,363.3,582.2z M610.5,511.3C610.5,511.4,610.5,511.4,610.5,511.3C610.5,511.4,610.5,511.4,610.5,511.3&#13;&#10;&#9;&#9;&#9;C610.5,511.4,610.5,511.4,610.5,511.3z"/> </g> </g> <g id="vs-outline"> <polygon id="XMLID_1_" fill="none" stroke="#000000" stroke-width="15" stroke-linecap="round" stroke-linejoin="round" stroke-miterlimit="10" points="&#13;&#10;&#9;&#9;67.1,325.1 98.6,325.2 239.6,325.4 505.1,325.8 1069.1,320.6 1068.8,344.6 1064.6,735.6 1042.1,735.5 90.1,741.7 60.1,743.6 &#13;&#10;&#9;&#9;66.7,382.1 67,335.6 &#9;"/> <path id="XMLID_3_" fill="none" stroke="#000000" stroke-width="12" stroke-linecap="round" stroke-linejoin="round" stroke-miterlimit="10" d="&#13;&#10;&#9;&#9;M501.7,347.7c4.1,0,8.1,0,12,0.2c23.2,1.1,43.6,5.9,61.3,13.9c42.1,18.8,69.4,54.6,83.3,96.6c36.9,111.5-20.1,267.1-143.9,265.3&#13;&#10;&#9;&#9;C320,721,288.8,475.1,401.9,382.4c15.5-12.7,33.6-22.5,54.5-28.4c8.8-2.5,18.1-4.3,27.9-5.4c2.9-0.3,5.8-0.5,8.8-0.7&#13;&#10;&#9;&#9;C495.8,347.8,498.7,347.7,501.7,347.7z"/> <path id="XMLID_4_" fill="none" stroke="#000000" stroke-width="10" stroke-linecap="round" stroke-linejoin="round" stroke-miterlimit="10" d="&#13;&#10;&#9;&#9;M503,363.7C717,366.8,683,699,516.3,705C289.7,713.2,321,361,503,363.7z"/> <path id="XMLID_6_" fill="none" stroke="#000000" stroke-width="8" stroke-linecap="round" stroke-linejoin="round" stroke-miterlimit="10" d="&#13;&#10;&#9;&#9;M487.6,421.2c46.1-4.6,74.9,1.4,92.3,37.5s6.9,62.6,6.9,62.6S605,618.1,552,647.8c0,0-58.5,5-82.2-43.4"/> <path id="XMLID_5_" fill="none" stroke="#000000" stroke-width="9" stroke-linecap="round" stroke-linejoin="round" stroke-miterlimit="10" d="&#13;&#10;&#9;&#9;M547.8,506.9c8.5,0,3.6,17.3,0.9,17.3C545.9,524.2,541.8,506.9,547.8,506.9z"/> <path id="XMLID_7_" fill="none" stroke="#000000" stroke-width="9" stroke-linecap="round" stroke-linejoin="round" stroke-miterlimit="10" d="&#13;&#10;&#9;&#9;M500.1,507.4c9.5,0,2.6,15.9,1.6,16.4S492.6,507.4,500.1,507.4z"/> <path id="XMLID_9_" fill="none" stroke="#000000" stroke-width="9" stroke-linecap="round" stroke-linejoin="round" stroke-miterlimit="10" d="&#13;&#10;&#9;&#9;M547,545.7c5.3,14.4-33.8,20.8-34.5,6.6"/> <polyline id="XMLID_10_" fill="none" stroke="#000000" stroke-width="7" stroke-linecap="round" stroke-linejoin="round" stroke-miterlimit="10" points="&#13;&#10;&#9;&#9;553.1,590.2 550.9,583.9 550.7,586.7 532.6,587 &#9;"/> <path id="XMLID_11_" fill="none" stroke="#000000" stroke-width="7" stroke-linecap="round" stroke-linejoin="round" stroke-miterlimit="10" d="&#13;&#10;&#9;&#9;M570,493.8c0,0-18-10.1-27.2-2.1"/> <path id="XMLID_12_" fill="none" stroke="#000000" stroke-width="7" stroke-linecap="round" stroke-linejoin="round" stroke-miterlimit="10" d="&#13;&#10;&#9;&#9;M510.9,491.1c-7.1,1.4-31.8,1.6-32.7-3"/> <path id="XMLID_8_" fill="none" stroke="#000000" stroke-width="8" stroke-linecap="round" stroke-linejoin="round" stroke-miterlimit="10" d="&#13;&#10;&#9;&#9;M446.9,534.6c-7.3-18.6-24.1-6.7-23.1,8.8c0.9,15.5,19,31.7,24.4,12.2"/> <path id="XMLID_14_" fill="none" stroke="#000000" stroke-width="3.6551" stroke-linecap="round" stroke-linejoin="round" stroke-miterlimit="10" d="&#13;&#10;&#9;&#9;M443,543.4c-3.9-10.1-10.5-11-11.7-2.8"/> <path id="XMLID_15_" fill="none" stroke="#000000" stroke-width="3.6551" stroke-linecap="round" stroke-linejoin="round" stroke-miterlimit="10" d="&#13;&#10;&#9;&#9;M432.6,538.1c0.3,2.9,3.4,16.3,8.1,2.4"/> <path id="XMLID_16_" fill="none" stroke="#000000" stroke-width="8" stroke-linecap="round" stroke-linejoin="round" stroke-miterlimit="10" d="&#13;&#10;&#9;&#9;M558.7,646.1c1.2,8.5,28.9,31.7,28.9,31.7"/> <path id="XMLID_13_" fill="none" stroke="#000000" stroke-width="8" stroke-linecap="round" stroke-linejoin="round" stroke-miterlimit="10" d="&#13;&#10;&#9;&#9;M559.3,651c-4.6,11.6-7.6,22.8-7.6,22.8s-37.4,2.2-61.2-14c-36.2-24.7-50.9-55.4-50.9-55.4s-24.5,58,72.1,100.9"/> <path id="XMLID_18_" fill="none" stroke="#000000" stroke-width="8" stroke-linecap="round" stroke-linejoin="round" stroke-miterlimit="10" d="&#13;&#10;&#9;&#9;M562,692c0,0,2.5-18.2-4.8-28.5"/> <path id="XMLID_19_" fill="none" stroke="#000000" stroke-width="3.6551" stroke-linecap="round" stroke-linejoin="round" stroke-miterlimit="10" d="&#13;&#10;&#9;&#9;M559,677.8c-2.4,7.9-12.2,17.7-20.7,16.8"/> <path id="XMLID_20_" fill="none" stroke="#000000" stroke-width="4" stroke-linecap="round" stroke-linejoin="round" stroke-miterlimit="10" d="&#13;&#10;&#9;&#9;M438.1,626c2.1,9.7,32.9,48.4,57.9,62.1"/> <path id="XMLID_21_" fill="none" stroke="#000000" stroke-width="4" stroke-linecap="round" stroke-linejoin="round" stroke-miterlimit="10" d="&#13;&#10;&#9;&#9;M540.7,685.7c-10.4,4.9-30.5-1.8-44.2-11"/> <path id="XMLID_22_" fill="none" stroke="#000000" stroke-width="8" stroke-linecap="round" stroke-linejoin="round" stroke-miterlimit="10" d="&#13;&#10;&#9;&#9;M374,626c-0.9-39,14.7-47.8,14.7-47.8s-12.2-23.5-4-44.5s14-22.2,14-22.2s-2.4-20.4,4.3-35.3c6.7-14.9,20.1-19.2,20.1-19.2&#13;&#10;&#9;&#9;s-6.1-18.3,20.1-32.6c26.2-14.3,32-7,32-7s20.6-10.6,41.1-8.8c35.6,3,39.3,20.1,39.3,20.1"/> <path id="XMLID_17_" fill="none" stroke="#000000" stroke-width="8" stroke-linecap="round" stroke-linejoin="round" stroke-miterlimit="10" d="&#13;&#10;&#9;&#9;M475.5,425.9c-8.5,1.5-21.6,7.9-20.4,17.7c1.2,9.8,8.2,8.5,6.7,16.4s-11.3,19.2-10.4,28.3s1.5,32.9-6.7,36.9"/> <path id="XMLID_24_" fill="none" stroke="#000000" stroke-width="8" stroke-linecap="round" stroke-linejoin="round" stroke-miterlimit="10" d="&#13;&#10;&#9;&#9;M441.7,566.9c3.7,9.4,8.8,28.9-8.5,36.6"/> <path id="XMLID_25_" fill="none" stroke="#000000" stroke-width="8" stroke-linecap="round" stroke-linejoin="round" stroke-miterlimit="10" d="&#13;&#10;&#9;&#9;M437.5,609c-10.7,7-33.2,19.2-16.4,41.1c0,0-15.8,8.5-22.2-10.7c0,0-9.2,4.5-13.1,0.2"/> <path id="XMLID_23_" fill="none" stroke="#000000" stroke-width="4" stroke-linecap="round" stroke-linejoin="round" stroke-miterlimit="10" d="&#13;&#10;&#9;&#9;M404.6,619.6c11.3-22.8-3-24.7-4.9-41.1c-1.8-16.4,13.4-23.8,13.4-23.8"/> <path id="XMLID_26_" fill="none" stroke="#000000" stroke-width="8" stroke-linecap="round" stroke-linejoin="round" stroke-miterlimit="10" d="&#13;&#10;&#9;&#9;M588.2,482.9c0,0,2.4,28.9,10.4,47.2c7.9,18.3,24.2,21.6,19.8,48.7c-4.6,28.3-0.6,37.2-0.6,37.2s-11.6-9.4-11-21.6"/> <path id="XMLID_28_" fill="none" stroke="#000000" stroke-width="8" stroke-linecap="round" stroke-linejoin="round" stroke-miterlimit="10" d="&#13;&#10;&#9;&#9;M609.3,605.6c-2.4,21.9,5.8,20.4,7.3,31.7"/> <polygon id="XMLID_27_" fill="none" stroke="#000000" stroke-width="14" stroke-linecap="round" stroke-linejoin="round" stroke-miterlimit="10" points="&#13;&#10;&#9;&#9;114,369 127.5,356.5 157.5,356 158,409.5 125,410 125,378.5 &#9;"/> <path id="XMLID_29_" fill="none" stroke="#000000" stroke-width="14" stroke-linecap="round" stroke-linejoin="round" stroke-miterlimit="10" d="&#13;&#10;&#9;&#9;M207.5,356c24.5-0.4,38.5,52.5,6,55.5S172.5,356.5,207.5,356z"/> <path id="XMLID_30_" fill="none" stroke="#000000" stroke-width="14" stroke-linecap="round" stroke-linejoin="round" stroke-miterlimit="10" d="&#13;&#10;&#9;&#9;M282,355.5c43.5,0,27,53-2.5,56.5S257,355.5,282,355.5z"/> <line id="XMLID_32_" fill="none" stroke="#000000" stroke-width="8" stroke-linecap="round" stroke-linejoin="round" stroke-miterlimit="10" x1="336" y1="357.3" x2="404" y2="356"/> <line id="XMLID_33_" fill="none" stroke="#000000" stroke-width="8" stroke-linecap="round" stroke-linejoin="round" stroke-miterlimit="10" x1="315" y1="416.3" x2="349.7" y2="416.3"/> <line id="XMLID_34_" fill="none" stroke="#000000" stroke-width="8" stroke-linecap="round" stroke-linejoin="round" stroke-miterlimit="10" x1="94.5" y1="383.5" x2="96.5" y2="706"/> <path id="XMLID_31_" fill="none" stroke="#000000" stroke-width="14" stroke-linecap="round" stroke-linejoin="round" stroke-miterlimit="10" d="&#13;&#10;&#9;&#9;M223,487.5c53-1.9,63.5,86.5,3.5,85S168,489.5,223,487.5z"/> <path id="XMLID_35_" fill="none" stroke="#000000" stroke-width="8" stroke-linecap="round" stroke-linejoin="round" stroke-miterlimit="10" d="&#13;&#10;&#9;&#9;M221.5,507.5c33.4-1.9,31.3,46.5,6,47.8C204.5,556.4,187,509.5,221.5,507.5z"/> <polygon id="XMLID_38_" fill="none" stroke="#000000" stroke-width="14" stroke-linecap="round" stroke-linejoin="round" stroke-miterlimit="10" points="&#13;&#10;&#9;&#9;120.7,670.7 134.2,658.2 164.2,657.7 166.7,711.2 131.7,711.7 131.7,678.2 &#9;"/> <path id="XMLID_37_" fill="none" stroke="#000000" stroke-width="14" stroke-linecap="round" stroke-linejoin="round" stroke-miterlimit="10" d="&#13;&#10;&#9;&#9;M216.2,657.7c31.8,1.3,36.2,54,4,55.5C187.6,714.7,181.2,656.2,216.2,657.7z"/> <path id="XMLID_36_" fill="none" stroke="#000000" stroke-width="14" stroke-linecap="round" stroke-linejoin="round" stroke-miterlimit="10" d="&#13;&#10;&#9;&#9;M290.7,657.2c33,0.5,32.7,57.2-2.5,56.5C258.5,713.1,255.7,656.7,290.7,657.2z"/> <line id="XMLID_40_" fill="none" stroke="#000000" stroke-width="8" stroke-linecap="round" stroke-linejoin="round" stroke-miterlimit="10" x1="332.3" y1="715.7" x2="412.7" y2="715"/> <polygon id="XMLID_42_" fill="none" stroke="#000000" stroke-width="14" stroke-linecap="round" stroke-linejoin="round" stroke-miterlimit="10" points="&#13;&#10;&#9;&#9;809,364.5 822.5,352 852.5,351.5 855,405 820,405.5 820,372 &#9;"/> <path id="XMLID_41_" fill="none" stroke="#000000" stroke-width="14" stroke-linecap="round" stroke-linejoin="round" stroke-miterlimit="10" d="&#13;&#10;&#9;&#9;M904.5,351.5c31.8,1.3,36.2,54,4,55.5C875.9,408.5,869.5,350,904.5,351.5z"/> <path id="XMLID_39_" fill="none" stroke="#000000" stroke-width="14" stroke-linecap="round" stroke-linejoin="round" stroke-miterlimit="10" d="&#13;&#10;&#9;&#9;M979,351c33,0.5,32.7,57.2-2.5,56.5C946.8,406.9,944,350.5,979,351z"/> <line id="XMLID_44_" fill="none" stroke="#000000" stroke-width="8" stroke-linecap="round" stroke-linejoin="round" stroke-miterlimit="10" x1="604" y1="347" x2="790" y2="348"/> <line id="XMLID_45_" fill="none" stroke="#000000" stroke-width="8" stroke-linecap="round" stroke-linejoin="round" stroke-miterlimit="10" x1="658" y1="402" x2="790" y2="405"/> <line id="XMLID_46_" fill="none" stroke="#000000" stroke-width="8" stroke-linecap="round" stroke-linejoin="round" stroke-miterlimit="10" x1="1042" y1="349" x2="1046" y2="709"/> <line id="XMLID_47_" fill="none" stroke="#000000" stroke-width="8" stroke-linecap="round" stroke-linejoin="round" stroke-miterlimit="10" x1="1009" y1="683.7" x2="657.7" y2="683"/> <line id="XMLID_48_" fill="none" stroke="#000000" stroke-width="8" stroke-linecap="round" stroke-linejoin="round" stroke-miterlimit="10" x1="614.3" y1="713" x2="1009.7" y2="715"/> <polyline id="XMLID_43_" fill="none" stroke="#000000" stroke-width="14" stroke-linecap="round" stroke-linejoin="round" stroke-miterlimit="10" points="&#13;&#10;&#9;&#9;863,639.7 883,631.7 882.3,665 &#9;"/> <path id="XMLID_49_" fill="none" stroke="#000000" stroke-width="14" stroke-linecap="round" stroke-linejoin="round" stroke-miterlimit="10" d="&#13;&#10;&#9;&#9;M922.3,631.7c25.3,0,21.3,32,2,35.3S895.7,631.7,922.3,631.7z"/> <path id="XMLID_50_" fill="none" stroke="#000000" stroke-width="14" stroke-linecap="round" stroke-linejoin="round" stroke-miterlimit="10" d="&#13;&#10;&#9;&#9;M983,632.3c22.7,1.1,22,36.7,2,36.7S955,631,983,632.3z"/> <polyline id="XMLID_51_" fill="none" stroke="#000000" stroke-width="14" stroke-linecap="round" stroke-linejoin="round" stroke-miterlimit="10" points="&#13;&#10;&#9;&#9;752.3,485.7 760.3,479 759,577 &#9;"/> <path id="XMLID_52_" fill="none" stroke="#000000" stroke-width="14" stroke-linecap="round" stroke-linejoin="round" stroke-miterlimit="10" d="&#13;&#10;&#9;&#9;M803,474.3c26,1.5,28,105.3,6,106C787,581,779.7,473,803,474.3z"/> <path id="XMLID_53_" fill="none" stroke="#000000" stroke-width="14" stroke-linecap="round" stroke-linejoin="round" stroke-miterlimit="10" d="&#13;&#10;&#9;&#9;M865.7,473.7c21.2,2.4,22,107.3,0.7,106.7C845,579.7,841.7,471,865.7,473.7z"/> </g> <g id="vs-h-reveal"> <polyline id="XMLID_54_" fill="none" stroke="#5DBFD9" stroke-width="30" stroke-linecap="round" stroke-linejoin="round" stroke-miterlimit="10" stroke-opacity="0" points="&#13;&#10;&#9;&#9;55.7,347.7 48.3,758.3 88.3,752.3 1028.3,745.7 &#9;"/> <polygon id="XMLID_55_" fill="none" stroke="#5DBFD9" stroke-width="21" stroke-linecap="round" stroke-linejoin="round" stroke-miterlimit="10" stroke-opacity="0" points="&#13;&#10;&#9;&#9;1005.7,702.3 641,705.7 660.3,691.7 1002.3,692.3 &#9;"/> <line id="XMLID_56_" fill="none" stroke="#5DBFD9" stroke-width="21" stroke-linecap="round" stroke-linejoin="round" stroke-miterlimit="10" stroke-opacity="0" x1="1035" y1="707" x2="1035.7" y2="351"/> <path id="XMLID_57_" fill="none" stroke="#5DBFD9" stroke-width="21" stroke-linecap="round" stroke-linejoin="round" stroke-miterlimit="10" stroke-opacity="0" d="&#13;&#10;&#9;&#9;M783,393.7l-6.7-39.3l-146,0.3c0,0,22,12.3,32,34.3L783,393.7z"/> <line id="XMLID_58_" fill="none" stroke="#5DBFD9" stroke-width="27" stroke-linecap="round" stroke-linejoin="round" stroke-miterlimit="10" stroke-opacity="0" x1="771" y1="370.3" x2="663.7" y2="372.3"/> <path id="XMLID_59_" fill="none" stroke="#5DBFD9" stroke-width="27" stroke-linecap="round" stroke-linejoin="round" stroke-miterlimit="10" stroke-opacity="0" d="&#13;&#10;&#9;&#9;M376.3,368.3c-15.3,10-28.7,38.3-28.7,38.3l-18.7-0.3c0,0,17.3-20,14.7-36.7L376.3,368.3z"/> <line id="XMLID_60_" fill="none" stroke="#5DBFD9" stroke-width="19" stroke-linecap="round" stroke-linejoin="round" stroke-miterlimit="10" stroke-opacity="0" x1="103.7" y1="386.3" x2="106.3" y2="703.7"/> <path id="XMLID_2_" fill="none" stroke="#5DBFD9" stroke-width="40" stroke-linecap="round" stroke-linejoin="round" stroke-miterlimit="10" stroke-opacity="0" d="&#13;&#10;&#9;&#9;M209.3,523.7c34-4.7,31.7,34,7,34S196.1,525.5,209.3,523.7z"/> <path id="XMLID_62_" fill="none" stroke="#5DBFD9" stroke-width="20" stroke-linecap="round" stroke-linejoin="round" stroke-miterlimit="10" stroke-opacity="0" d="&#13;&#10;&#9;&#9;M370,597.7c0,0,2.7-16.3,8.7-20c0,0-18-53,8.3-70.3c0,0-4-44.7,23-56c0,0,28-53.7,64-44.3c0,0,71-32,90.7,19.7&#13;&#10;&#9;&#9;c0,0,38,32.7,35.7,86.7c0,0,11,23.3,18.3,28C626,546,634,559,628,580.7s-1.3,35-1.3,35"/> <line id="XMLID_63_" fill="none" stroke="#5DBFD9" stroke-width="16" stroke-linecap="round" stroke-linejoin="round" stroke-miterlimit="10" stroke-opacity="0" x1="619.7" y1="628.3" x2="614.7" y2="619.3"/> <path id="XMLID_64_" fill="none" stroke="#5DBFD9" stroke-width="19" stroke-linecap="round" stroke-linejoin="round" stroke-miterlimit="10" stroke-opacity="0" d="&#13;&#10;&#9;&#9;M633.3,595c1.3-53-11.7-84.7-25.7-114c-14-29.3-24.3-99.7-111.3-92c-87,7.7-130,101-132.7,183.7"/> </g> </svg>